<svg xmlns="http://www.w3.org/2000/svg" width="167.262" height="43.258" viewBox="0 0 167.262 43.258"><defs><style>.a{fill:#00473f;}.b{fill:#dec04b;}</style></defs><g transform="translate(-9246 -445)"><path class="a" d="M285.437,150.436h-1.3l2.722,2.639v1.992h.9v-1.992l2.73-2.639h-1.3l-1.884,1.809Zm-9.069-.415-1.643,3.419-1.577-3h-.988l2.573,5,1.635-3.345,1.644,3.345,2.573-5H279.6l-1.577,3.013Zm-13.1,2.731c0-.922,1.037-1.66,2.307-1.66s2.308.738,2.308,1.66-1.029,1.651-2.308,1.651-2.307-.73-2.307-1.651m-.946,0c0,1.369,1.461,2.481,3.253,2.481s3.253-1.112,3.253-2.481-1.452-2.49-3.253-2.49-3.253,1.12-3.253,2.49m-7.511.8,1.095-.93,2.1,2.448h1.112l-2.481-3.046,1.8-1.585h-1.228l-2.4,2.084v-2.084H253.9v4.631h.913Zm-7.871-2.282v3.8h.9v-3.8h2.241v-.83H244.7v.83Zm-7.8.514.714,1.1h-1.419Zm2.117,3.287h1.079l-3.2-4.963-3.195,4.963h1.079l.871-1.353h2.49Zm-13.343-3.8h1.561c.971,0,2.307.3,2.307,1.486s-1.336,1.485-2.307,1.485h-1.561Zm1.635,3.8c1.386,0,3.17-.639,3.17-2.315s-1.784-2.316-3.17-2.316h-2.548v4.631Zm-12.3-2.315c0-.922,1.037-1.66,2.308-1.66s2.307.738,2.307,1.66-1.03,1.651-2.307,1.651-2.308-.73-2.308-1.651m-.946,0c0,1.369,1.461,2.481,3.254,2.481s3.253-1.112,3.253-2.481-1.453-2.49-3.253-2.49-3.254,1.12-3.254,2.49m-7.517-1.486h1.834c.689,0,.946.174.946.5s-.257.506-.946.506h-1.834Zm0,1.834H210.7c.855,0,1.817-.324,1.817-1.336s-.962-1.328-1.817-1.328h-2.814v4.631h.9Z" transform="translate(9080.815 332.818)"/><path class="b" d="M150.044,102.459c-.862,1.127-2.652,2.386-5.834,2.386-4.377,0-6.962-1.989-6.962-5.436v-14.2c-.067-4.574-2.188-4.64-3.315-4.64h-6.756c-.331,0-.4.066-.4.2V92.507c0,2.055.066,2.52.663,2.52h2.586c.464,0,.53.2.53.4s-.066.332-.53.332H114.845c-.53,0-.6-.133-.6-.332s.067-.4.6-.4h2.586c.53,0,.6-.465.6-2.52V71.025c0-2.055-.067-2.452-.6-2.452h-2.586c-.53,0-.6-.2-.6-.4s.067-.332.6-.332h11.338c.464,0,.6.133.6.332V79.71c0,.133.066.266.4.266h5.695c2.055,0,2.785-.861,2.785-3.117,0-1.856-.6-3.514-.6-5.37,0-3.05,2.453-4.443,5.437-4.443,2.718,0,5.7,1.79,5.7,4.907a4.092,4.092,0,0,1-8.155.265c0-1.791,1.591-2.386,1.591-3.25,0-.6-.53-.861-1.061-.861a2.972,2.972,0,0,0-2.785,3.116c0,1.988.6,3.846.6,5.834a3.5,3.5,0,0,1-1.326,2.918v.066c4.906-.464,10.874,2.056,10.874,8.09V101.8c0,.8.133,1.724,1.26,1.724a2.976,2.976,0,0,0,2.254-1.392c.133-.265.265-.4.6-.2.132.133.2.266,0,.53" transform="translate(9131.752 377.953)"/><path class="b" d="M216.482,73.081a5.8,5.8,0,0,0-5.7-5.173c-4.044,0-5.039,3.25-5.437,8.487a73.612,73.612,0,0,0,0,10.808c.4,5.237,1.393,8.487,5.437,8.487a5.8,5.8,0,0,0,5.7-5.172Zm12.8,21.084c-.862,1.194-2.785,2.386-6.033,2.386-3.713,0-5.968-1.326-6.5-3.845h-.133c-1.325,2.32-3.713,3.845-7.426,3.845-7.426,0-13.857-5.37-13.857-14.852,0-9.415,6.5-14.652,13.857-14.652a8.168,8.168,0,0,1,7.36,3.712h.132V68.174c0-.2.067-.332.53-.332h11.206c.464,0,.6.133.6.332s-.067.4-.6.4h-2.586c-.6,0-.664.465-.664,2.453V93.5c0,.995.265,1.724,1.326,1.724a2.859,2.859,0,0,0,2.188-1.392c.2-.264.332-.4.6-.2.2.133.2.266,0,.53" transform="translate(9087.646 377.953)"/><path class="b" d="M305.806,96.705H279.024a.382.382,0,0,1-.4-.4,1.206,1.206,0,0,1,.265-.729L295.86,69.586v-.066h-4.507c-6.629,0-10.009,3.912-10.009,8.222v.928c0,.53-.2.6-.4.6s-.4-.134-.4-.6V69.455c0-.6.265-.663.463-.663h24.263a.351.351,0,0,1,.4.4,3.14,3.14,0,0,1-.266.729L288.373,95.843v.133h7.818c6.033,0,9.215-4.243,9.215-10.277v-1c0-.53.2-.6.4-.6.265,0,.4.133.4.6V96.042c0,.6-.2.663-.4.663" transform="translate(9042.335 377.004)"/><path class="b" d="M382.479,69.52h-2.585c-.6,0-.663.465-.663,2.519V86.891c0,8.421-6.829,10.609-13.858,10.609-6.961,0-13.591-2.386-13.591-10.609V72.039c0-2.054-.133-2.519-.664-2.519H348.6c-.464,0-.53-.2-.53-.4s.067-.332.53-.332h14.852c.463,0,.53.133.53.332s-.068.4-.53.4h-2.322c-.529,0-.662.465-.662,2.519V91.533c0,4.377,2.652,5.237,4.972,5.237,2.387,0,5.106-.861,5.106-5.237V72.039c0-2.054-.067-2.519-.664-2.519h-2.254c-.53,0-.6-.2-.6-.4s.066-.332.6-.332h14.852c.53,0,.6.133.6.332s-.067.4-.6.4" transform="translate(9004.561 377.004)"/><path class="b" d="M441.46,96.552c-5.238,0-10.012-2.386-10.012-5.768a3.586,3.586,0,0,1,7.161-.2c0,1.989-1.392,2.188-1.392,3.447,0,1.193,2.187,1.724,4.11,1.724,2.785,0,5.967-.928,5.967-4.243,0-7.492-15.117-6.1-15.117-15.978,0-4.973,4.84-8.487,10.807-8.487,4.973,0,9.217,2.188,9.217,5.3a3.243,3.243,0,0,1-3.316,3.314,3.119,3.119,0,0,1-3.315-3.116c0-1.857,1.26-1.989,1.26-3.183,0-1.128-1.923-1.591-3.779-1.591-2.984,0-4.509,1.724-4.509,3.911,0,7.293,15.515,6.1,15.515,16.111,0,6.233-6.829,8.752-12.6,8.752" transform="translate(8959.204 377.953)"/></g></svg>